<svg xmlns="http://www.w3.org/2000/svg" viewBox="0 0 584.09 584.09"><defs><style>.cls-1{fill:#231815;stroke:#fff;}.cls-1,.cls-2{stroke-miterlimit:10;}.cls-2,.cls-4{fill:#fff;}.cls-2{stroke:#231815;}.cls-3{fill:#040000;}</style></defs><title>logo</title><g id="レイヤー_2" data-name="レイヤー 2"><g id="レイヤー_1-2" data-name="レイヤー 1"><circle class="cls-1" cx="292.05" cy="292.05" r="291.55"/><circle class="cls-2" cx="292.05" cy="292.05" r="185.88"/><path class="cls-3" d="M212.19,316.93l18.9,11.84a144,144,0,0,1,35.54,31.54L281.73,379A55.39,55.39,0,0,0,325,399.74h41.19a16.88,16.88,0,0,0,0-33.76h-8c-5.14,0-14.55-2.58-16.19-4.9l-39.24-55.4a21.6,21.6,0,0,1-2.8-19.39l2.67-7.86a103.1,103.1,0,0,0,11.52.71c13.22,0,21.62-3.26,23.72-9.45v0l28.73-80.83a3.36,3.36,0,0,0-2.06-4.28h0a3.4,3.4,0,0,0-4.33,2.06l-25.32,71.25c-.47-.62-1-1.24-1.54-1.87-4.38-4.91-11.63-10.11-21-15-3.9-2.08-8.13-4.08-12.56-5.95-5.53-2.36-11.41-4.52-17.48-6.44a182.46,182.46,0,0,0-32.06-7.23,100.33,100.33,0,0,0-15.3-.91,49,49,0,0,0-11.51,1.44l12.34-33a3.35,3.35,0,0,0-2-4.32h0a3.41,3.41,0,0,0-4.37,2l-15.59,41.63A9.93,9.93,0,0,0,213,230c-2.35,7.28,4.48,16.13,19.28,25.1a77.45,77.45,0,0,1-9.57,11.12l-14.28,13.68a23.74,23.74,0,0,0-7.26,17.07A23.46,23.46,0,0,0,212.19,316.93Zm100.48-68.12a63.18,63.18,0,0,1,15.55,11.62,15.1,15.1,0,0,1,3,4.51,2.41,2.41,0,0,0,.08.25,3.62,3.62,0,0,1,.15,2.32h0c-1.13,3.53-10.57,6-26.59,4.39Zm-93.2-16.75a3.42,3.42,0,0,1,.32-.7h0c.63-.95,3.57-3.95,15.32-4.21a87.29,87.29,0,0,1,10.1.4l-2.73,7.81A78.33,78.33,0,0,1,236,249.4C223.29,241.73,218.48,235.11,219.47,232.06Zm-6.31,52.64L227.44,271a84.77,84.77,0,0,0,12.62-15.33s0,0,0,0h0a85.52,85.52,0,0,0,8.83-18.11l3.2-9.18A180.54,180.54,0,0,1,280.24,235c5.87,1.85,11.54,3.94,16.87,6.21,3.31,1.4,6.49,2.88,9.5,4.39l-9.53,28.05a.42.42,0,0,1,0,.1l-3.54,10.44a28.31,28.31,0,0,0,3.68,25.39L336.42,365c3.92,5.53,17,7.76,21.75,7.76h8a10.15,10.15,0,0,1,0,20.3H325a48.62,48.62,0,0,1-38-18.22l-15.1-18.69a150.44,150.44,0,0,0-37.2-33l-18.9-11.85a16.76,16.76,0,0,1-7.86-14.3A17.05,17.05,0,0,1,213.16,284.7Z"/><path class="cls-4" d="M172.24,105.8a10.41,10.41,0,0,1,1.81,8.53,12.14,12.14,0,0,1-5,7.7,18.24,18.24,0,0,1-6.72,2.68,4.51,4.51,0,0,0-1.61.56c-.35.26-.27.82.23,1.69.27.45.24.79-.11,1s-.57.14-.83-.21a3,3,0,0,1-.34-.56,46.52,46.52,0,0,0-3.26-5.21c-.21-.3-.84-1.09-1.88-2.4A5,5,0,0,1,154,119c-.32-.44-.3-.78.05-1s.76,0,1.39.62q6.9,7,13.17,2.48a6.82,6.82,0,0,0,3-4.54,7.32,7.32,0,0,0-1.65-5.35,7.89,7.89,0,0,0-4.49-3.15,18.5,18.5,0,0,0-7.4.12c-3.78.65-6.69.73-8.71.23a8.91,8.91,0,0,1-5.11-3.6,10.12,10.12,0,0,1-2-7.73,9.92,9.92,0,0,1,4.22-6.71,15.34,15.34,0,0,1,4.86-2,5.73,5.73,0,0,0,1.62-.64c.32-.24.49-.45.5-.64a2.77,2.77,0,0,0-.38-1.13.57.57,0,0,1,.16-.79c.29-.22.57-.15.82.2a2.75,2.75,0,0,1,.34.56,25.33,25.33,0,0,0,1.73,2.64,24.14,24.14,0,0,0,2.65,3.18l.56.67c.26.3.24.56,0,.77s-.79.06-1.39-.53a9.69,9.69,0,0,0-5.44-2.66,7,7,0,0,0-5.3,1.21,5.6,5.6,0,0,0-2.47,4,6.72,6.72,0,0,0,1.49,4.76,7.23,7.23,0,0,0,5.19,3.15,28.52,28.52,0,0,0,6.55-.61,23,23,0,0,1,9-.12A9,9,0,0,1,172.24,105.8Z"/><path class="cls-4" d="M211.05,96.08c.15.29-.07.59-.68.91l-6.58,3.46-2,1-1.91,1c-.64.33-1,.37-1.16.11s.52-.82,2-1.7c.76-.48,1.15-.85,1.16-1.13a7.67,7.67,0,0,0-1-2.33l-7.35-14L179.07,91l7.15,13.62c.75,1.44,1.31,2.23,1.67,2.37s1.21-.08,2.54-.66c.87-.37,1.36-.45,1.48-.22s-.1.6-.74.94l-.43.22-2.43,1.28-1.51.79-2,1.06-4.05,2.12c-.64.34-1,.38-1.16.12s.1-.58.71-1l1.25-.78c.67-.43,1-.83,1.09-1.19a12.72,12.72,0,0,0-1.26-2.76L168.05,81.59a9.35,9.35,0,0,0-1.55-2.44c-.28-.17-.86-.05-1.74.37-1,.45-1.65.71-1.84.77s-.35,0-.48-.27,0-.51.42-.73c.12-.07.41-.2.84-.38q1.25-.54,5.73-2.89c1.63-.85,2.76-1.47,3.37-1.86a5,5,0,0,1,.83-.53c.58-.3,1-.29,1.12,0s-.29.71-1.34,1.26-1.6,1-1.68,1.34a5.25,5.25,0,0,0,.89,2.46l5.82,11.1,14.48-7.6-5.44-10.37c-.9-1.71-1.55-2.65-2-2.82s-1.39.17-2.91,1c-.48.25-.8.23-.95-.06s0-.58.59-.86l.24-.13,2.36-1.24,2.6-1.36,4-2.08,1.32-.7q1-.53,1.23-.09t-1.86,1.59a3.68,3.68,0,0,0-.86.57,1,1,0,0,0-.33.85A13.25,13.25,0,0,0,192,68.85l13.43,25.59A9.07,9.07,0,0,0,207.06,97c.5.19,1.51-.12,3-.92C210.56,95.77,210.88,95.76,211.05,96.08Z"/><path class="cls-4" d="M240.74,67.46a20.13,20.13,0,0,1-.5,14.51,15.19,15.19,0,0,1-9.68,8.94,16.28,16.28,0,0,1-13.73-1.6,20.21,20.21,0,0,1-9.09-11.79q-2.56-8.08.49-14.72a16.26,16.26,0,0,1,10.36-8.95,15.38,15.38,0,0,1,13.25,1.72A20.69,20.69,0,0,1,240.74,67.46ZM235,69.56q-3-9.51-8.57-13.58a8.33,8.33,0,0,0-7.84-1.17A8.59,8.59,0,0,0,213,59.39q-2.7,6,.63,16.55,2.65,8.36,7,12a9.65,9.65,0,0,0,9.68,2,8.4,8.4,0,0,0,6-6.71C237.17,79.51,236.72,74.92,235,69.56Z"/><path class="cls-4" d="M276.16,72c0,.15.12,1,.29,2.65s.35,3.17.57,4.64l.26,1.77q-5.31.47-20.9,2.76l-3.71.54-2.47.37-.53.08c-.69.1-1,0-1.09-.28a.32.32,0,0,1,.27-.39c.11,0,.78-.16,2-.44.92-.21,1.46-.49,1.61-.85a6.38,6.38,0,0,0-.08-2.57L247.93,50c-.15-1-.39-1.64-.73-1.79a7.82,7.82,0,0,0-3,.14c-.57.08-.88,0-.93-.34s.33-.51,1.12-.63L253.61,46l6.07-.9L267.2,44a18.71,18.71,0,0,0,2.93-.65q.45,2.29,1.42,6.33l.56,2.28a4.48,4.48,0,0,1,.16.69c.05.36-.09.56-.41.61s-.74-.36-1.06-1.23c-1.16-3.14-2.57-5-4.24-5.67q-1.86-.72-9.17.35l-4.41.65,2.33,15.8L256.6,63q6-.89,7.2-2t1-5.59c0-.76.1-1.17.42-1.21s.64.23.74.88.2,1.6.31,2.86.22,2.22.31,2.86c.57,3.84,1,6.46,1.34,7.88.08.35.14.66.18.91.07.46-.1.72-.49.78s-.44-.09-.57-.38a28.09,28.09,0,0,1-.9-2.92c-.59-2.07-1.66-3.24-3.2-3.53a22.43,22.43,0,0,0-5.07.42l-2.41.35,2.66,18Q270,80.57,271.93,79.8q3.44-1.32,3-7.39c-.06-.89.11-1.37.5-1.43S276.05,71.28,276.16,72Z"/><path class="cls-4" d="M321.65,81.08c0,.31-.4.45-1.16.42l-.59,0-2.76-.1-3.08-.12-3.79-.13L307.35,81H307c-.76,0-1.13-.21-1.12-.53s.54-.53,1.59-.49c1.85.07,3-.09,3.39-.47.19-.18.32-1.39.41-3.64l1-28.16s-.25.66-.72,1.87q-2.43,6.49-7.05,19.52l-2.83,8.55c-.57,1.69-1,2.52-1.18,2.51s-.51-.45-.77-1.33q-1.38-5-8-25L289.8,48c0,.69-.06,1.63-.1,2.82l-.64,17.64q-.36,9.94-.21,10c.24.48,1.1.75,2.58.8,1.2,0,1.79.25,1.78.61s-.41.58-1.17.56a7.1,7.1,0,0,1-1.29-.16,11,11,0,0,0-1.36-.16h-6.25c-.65,0-1-.19-1-.52s1.05-.53,3.12-.49c.87,0,1.38-.09,1.53-.38a9.24,9.24,0,0,0,.32-2.82l1-26c.11-3,.13-4.64.07-4.89a1.49,1.49,0,0,0-.89-1.07,13.07,13.07,0,0,0-3-.55c-.58-.05-.86-.23-.85-.52s.55-.57,1.61-.54l.93,0,2.86.1c2.16.08,3.68.12,4.56.13l2.84,8.65q1.11,3.32,6.26,19.3,1.17-3.5,2.39-6.89l6.46-17.73q.6-1.55,1.05-2.55l8,.24a6.59,6.59,0,0,1,2,.23.53.53,0,0,1,.25.5c0,.37-.32.54-.94.51a13.24,13.24,0,0,0-2.07,0,2.7,2.7,0,0,0-1.82.8q-.29.38-.5,6.37l-.92,25.31c0,1.46.06,2.31.34,2.58a7.7,7.7,0,0,0,3.51.62h.33C321.3,80.6,321.66,80.77,321.65,81.08Z"/><path class="cls-4" d="M355.1,88.31c-.07.3-.36.4-.9.29a7.89,7.89,0,0,1-.94-.25l-6.72-1.59-6.8-1.17a6,6,0,0,1-.81-.11c-.71-.15-1-.41-.95-.78s.6-.51,1.56-.32q4.69.9,4.88,0a3.84,3.84,0,0,0,0-.44l-.14-1.49-.12-.8q-.15-1.76-.85-7.78L331.9,71.57q-4.93,7.86-5.19,9.14a.84.84,0,0,0,.45,1c.1.06,1,.31,2.62.76,1,.24,1.5.53,1.44.85s-.58.43-1.5.25q-2.45-.51-5.65-1.38c-.52-.15-1.07-.28-1.64-.39a7.47,7.47,0,0,0-1.68-.16,4.25,4.25,0,0,1-.71,0c-.5-.11-.72-.32-.65-.64s.66-.38,1.78-.19a5.36,5.36,0,0,0,2.53,0,3.07,3.07,0,0,0,1.52-1.5Q336.1,61,342.82,50a6.51,6.51,0,0,1,.78-1.31l.43-.93c.19-.36.37-.53.55-.49s.17.14.2.37c.18,1.48.63,4.58,1.36,9.32q.87,5.55,4.23,27.86a2.61,2.61,0,0,0,.78,1.76,8,8,0,0,0,2.66.94C354.73,87.74,355.16,88,355.1,88.31ZM343.22,72.6Q342.85,70,342,64.11l-1.05-7.9q-3.42,5.41-8.47,14.19Z"/><path class="cls-4" d="M386.86,100.41c-.11.31-.41.37-.88.19l-.41-.15-6.11-2.27L373.51,96l-.67-.25c-.64-.24-.92-.48-.82-.74s.58-.26,1.45,0q2.75.74,3,.12T368.7,73.36L363.24,88c-.44,1.19-.53,2-.26,2.42s1.23,1,2.88,1.57c.38.14.51.38.38.72s-.41.37-.88.19l-.92-.35-7.11-2.64-1.56-.58L354,88.68l-.46-.17c-.51-.19-.71-.43-.61-.72s.82-.26,2.09.17,1.94.4,2.32,0a16.86,16.86,0,0,0,1.34-3.15L369.2,56.45c.23-.73-.58-1.43-2.42-2.12q-1.26-.46-1-1c.12-.31.46-.35,1-.14.17.07.39.17.65.3.52.27,2,.88,4.54,1.81q4,1.5,5.14,1.8a10.43,10.43,0,0,1,1.2.39q.93.35.72.9a.39.39,0,0,1-.43.28,14.6,14.6,0,0,1-1.84-.55c-1-.34-1.68-.43-2-.26A5.34,5.34,0,0,0,373.66,60L369,72.45,375,69.73q13.5-6.21,13.65-6.62.24-.66-2.16-1.5c-1-.35-1.48-.71-1.34-1.08s.37-.29.86-.15,2.14.74,5,1.79l2.8,1a20.07,20.07,0,0,1,2,.81c.31.2.42.43.32.7s-.59.42-1.33.14a16.55,16.55,0,0,0-3.05-1,3,3,0,0,0-1.65.35q-4.59,2.25-13.92,6.67l-1.84.78-.92.48c.11.32.62,1.55,1.52,3.7q2.63,6,7,18.78a15.36,15.36,0,0,0,1.4,3.31,6.12,6.12,0,0,0,2.28,1.43C386.53,99.78,387,100.14,386.86,100.41Z"/><path class="cls-4" d="M414.89,107.11c-.07.13-.54.89-1.39,2.27s-1.65,2.73-2.38,4l-.87,1.56q-4.49-2.86-18.25-10.55l-3.27-1.83-2.18-1.22-.47-.26c-.61-.34-.83-.63-.69-.89a.32.32,0,0,1,.45-.14c.09.06.72.35,1.87.88.86.4,1.45.5,1.79.31A6.5,6.5,0,0,0,391,99.18l14.92-26.73c.52-.92.69-1.55.52-1.87A8,8,0,0,0,404,68.87c-.51-.28-.69-.55-.54-.82s.58-.21,1.27.18l8.11,4.53q.43.22,5.36,3l6.64,3.7a18.62,18.62,0,0,0,2.72,1.27q-1.05,2.1-2.72,5.88l-1,2.15a3.86,3.86,0,0,1-.3.64q-.27.48-.69.24c-.35-.2-.38-.73-.1-1.62q1.5-4.8.1-7.08-1-1.71-7.49-5.31l-3.89-2.17-7.78,13.94,1.14.64c3.54,2,5.85,2.91,6.92,2.81S414.29,89.46,416,87c.44-.63.79-.86,1.08-.71s.36.58,0,1.15-.81,1.39-1.49,2.46-1.18,1.89-1.5,2.46c-1.89,3.38-3.14,5.74-3.74,7.06a8.69,8.69,0,0,1-.42.82c-.22.42-.51.52-.86.33a.53.53,0,0,1-.22-.65c.07-.31.43-1.27,1.07-2.86.79-2,.66-3.59-.38-4.75a22.07,22.07,0,0,0-4.28-2.76l-2.13-1.19-8.87,15.89q10.44,5.82,12.47,6.41,3.52,1.05,6.91-4c.5-.75.92-1,1.27-.83S415.26,106.45,414.89,107.11Z"/><path class="cls-4" d="M437.14,132.9q-1.39,1.82-4.41-.5a7.56,7.56,0,0,1-3.11-6.83,8.44,8.44,0,0,1,.72-3.14c.42-.87,1.63-3,3.65-6.24q1.86-3,1.22-5.26c-.42-1.53-1.75-3.19-4-5l-10.41,13.59c-.44.57-.25,1.28.56,2.13.23.23.87.76,1.92,1.61.37.28.47.54.29.77s-.54.2-1-.17l-.52-.4-3.75-2.87-2.2-1.69c-1-.77-1.67-1.27-2-1.52l-1.68-1.28c-.64-.49-.85-.86-.65-1.12s.65,0,1.51.61c1.37,1,2.24,1.4,2.6,1.17.22,0,.71-.57,1.46-1.55l18.23-23.81c.88-1.15,1.28-1.93,1.21-2.35S436.1,88,434.88,87c-.72-.55-1-1-.78-1.21s.56-.25,1,.1a2.53,2.53,0,0,1,.36.34l5.63,4.52c.58.44,1.4,1,2.46,1.79s2.05,1.38,2.51,1.74a12.91,12.91,0,0,1,5,6.66,7.29,7.29,0,0,1-1.37,6.65,7.73,7.73,0,0,1-6.23,3.13,14.73,14.73,0,0,1-8.32-2.71c-.28-.17-.46-.24-.53-.2s0,.28.3.5q3.93,4.25,3.8,8t-4.38,10.41Q432,130.45,434,132c.43.33.71.41.85.24a.22.22,0,0,0,0-.12,2.4,2.4,0,0,1,.38-.94,1,1,0,0,1,1.64-.18A1.18,1.18,0,0,1,437.14,132.9Zm7.62-28.44q4.73-6.17-.63-10.27a4.29,4.29,0,0,0-2.24-1.09,2,2,0,0,0-1.57,1l-8.39,11q4.11,3.23,7.13,3.07T444.76,104.46Z"/><path class="cls-4" d="M370.32,521.67c-.17-.44-.06-.74.34-.9s.87.16,1.39,1l.94,1.73a9.33,9.33,0,0,0,2.4,2.6,5.36,5.36,0,0,0,4.33.71,11.79,11.79,0,0,0,2.62-.77c1.56-.69,2.5-1.11,2.83-1.27l-12.34-30.4c-.49-1.21-1.12-1.83-1.88-1.88a10.18,10.18,0,0,0-2.94.84c-.41.14-.67.07-.78-.18s.1-.54.64-.75a5,5,0,0,1,.72-.24c2-.75,3.48-1.29,4.32-1.63q1.66-.67,3.09-1.35c.95-.44,2.18-1,3.69-1.58.78-.32,1.22-.34,1.33-.07s-.53.76-2,1.38c-1,.42-1.63.91-1.75,1.47a5.38,5.38,0,0,0,.59,2.17l12.25,30.2q5-2.07,6-3,2.7-2.45,1.21-7.7-.47-1.58.09-1.8c.4-.16.75.11,1,.82a10.63,10.63,0,0,1,.4,1.12l.37,1.2q.79,2.38,2,6.28l-2.26.91-10.33,4q-1.83.69-5.64,2.29l-8.29,3.54q-1.25-2.77-4.05-8.09a1.89,1.89,0,0,0-.2-.35C370.39,521.79,370.34,521.7,370.32,521.67Z"/><path class="cls-4" d="M324.38,504.61c-.07-.32.23-.55.89-.7l7.25-1.67,2.16-.49,2.1-.48q1.05-.24,1.14.18c.07.28-.71.66-2.32,1.15-.86.26-1.33.53-1.41.79a7.63,7.63,0,0,0,.35,2.51l3.53,15.42L354,517.66l-3.43-15c-.37-1.59-.7-2.5-1-2.73a4.82,4.82,0,0,0-2.62,0c-.93.14-1.43.09-1.48-.16s.24-.56,1-.72l.47-.11,2.67-.61,1.67-.38,2.23-.51,4.44-1c.71-.16,1.1-.1,1.16.18s-.25.54-.94.77l-1.4.43c-.76.25-1.22.54-1.36.87a12.34,12.34,0,0,0,.52,3l6.4,27.91a8.58,8.58,0,0,0,.88,2.75c.22.25.81.28,1.77.1s1.77-.27,2-.28.34.12.4.38-.13.5-.59.6c-.14,0-.44.09-.91.16q-1.35.19-6.27,1.32c-1.8.41-3,.73-3.74.94a5,5,0,0,1-.94.3c-.63.15-1,0-1.07-.31s.46-.61,1.61-.87,1.8-.56,2-.87a5.31,5.31,0,0,0-.23-2.61L354.32,519l-15.94,3.66L341,534.06c.43,1.88.82,3,1.18,3.22s1.38.2,3.07-.23q.79-.18.9.3c.08.32-.19.55-.79.68l-.26.07-2.6.59-2.86.66-4.36,1-1.46.33c-.74.17-1.15.1-1.22-.22s.66-.67,2.21-1.06a3.69,3.69,0,0,0,1-.34.91.91,0,0,0,.53-.74,12.91,12.91,0,0,0-.44-2.51l-6.46-28.17a9,9,0,0,0-.94-2.91c-.44-.31-1.49-.27-3.16.11C324.77,505,324.46,505,324.38,504.61Z"/><path class="cls-4" d="M294.21,514.75c0-.14,0-1-.07-2.66s-.1-3.19-.2-4.67l-.12-1.79q5.34,0,21.06-1.07l3.73-.25,2.5-.16.54,0c.69,0,1,.08,1.06.37a.33.33,0,0,1-.3.36l-2.05.28c-.94.14-1.49.37-1.67.71a6.37,6.37,0,0,0-.13,2.58l2,30.55c.07,1,.26,1.67.58,1.85a8,8,0,0,0,3,.1c.58,0,.88.1.9.4s-.37.49-1.17.54l-9.26.62-6.13.41-7.59.5a19.22,19.22,0,0,0-3,.41c-.18-1.55-.49-3.68-.92-6.41l-.37-2.32a3.65,3.65,0,0,1-.1-.7q0-.54.45-.57c.4,0,.72.4,1,1.3q1.35,4.85,3.77,6c1.2.57,4.26.7,9.17.37l4.45-.29-1.06-15.94-1.3.09q-6.08.4-7.34,1.41t-1.46,5.49c0,.76-.2,1.15-.52,1.18s-.62-.29-.66-.94-.07-1.61-.08-2.88,0-2.23-.09-2.88c-.25-3.87-.49-6.52-.7-8-.05-.36-.09-.66-.1-.91q0-.71.54-.75c.26,0,.44.13.55.43a30,30,0,0,1,.65,3q.64,3.16,2.91,3.78a22.72,22.72,0,0,0,5.09,0l2.43-.17L313,505.94q-11.92.78-14,1.41-3.53,1-3.61,7.12c0,.89-.21,1.36-.61,1.38S294.26,515.51,294.21,514.75Z"/><path class="cls-4" d="M245.16,519.56a20.14,20.14,0,0,1,6.7-12.89,15.19,15.19,0,0,1,12.58-3.9,16.28,16.28,0,0,1,11.7,7.36,20.16,20.16,0,0,1,3.13,14.56q-1.17,8.38-6.78,13.06a16.24,16.24,0,0,1-13.2,3.63,15.41,15.41,0,0,1-11.22-7.27A20.64,20.64,0,0,1,245.16,519.56Zm6.06.56q-1.36,9.89,1.9,15.94a8.3,8.3,0,0,0,6.57,4.44,8.55,8.55,0,0,0,7-1.72q5-4.24,6.55-15.2,1.22-8.69-1.16-13.92a9.66,9.66,0,0,0-7.86-6,8.44,8.44,0,0,0-8.33,3.47Q252.39,511.76,251.22,520.12Z"/><path class="cls-4" d="M202.42,525.94q.17-.53,1.44-.06l1.14.36.93.3c.56.17.91.18,1.08,0a5.86,5.86,0,0,0,.7-1.68l9.41-29.8c.57-1.82.93-2.89,1.06-3.19s.28-.42.46-.37.38.34.54.8l3.56,11.79q3.09,10.26,7.34,25.51l9.13-28.92a.94.94,0,0,0-.51-1.1,21.87,21.87,0,0,0-3.44-1.35c-.45-.14-.63-.35-.55-.63s.62-.37,1.51-.09c.31.1,1.28.46,2.91,1.09.54.21,1.07.4,1.59.56l.94.18c.66.13,1.64.41,3,.82l.52.17q1.2.38,1.05.84c-.1.31-.5.36-1.19.14a10.43,10.43,0,0,0-3.67-.73c-.4.12-.79.8-1.19,2l-8.07,25.57c-.91,2.87-.89,4.86.06,5.95a6.25,6.25,0,0,0,2.79,1.46c.9.28,1.29.6,1.17,1s-.41.4-.93.24c-.69-.22-1.56-.53-2.61-.94l-1.68-.64-1.46-.41c-1.14-.36-2.26-.65-3.37-.89l-9.45-32.31-7.27,23c-.34,1.08-.53,1.73-.57,2a.72.72,0,0,0,.26.65,9.17,9.17,0,0,0,2.42,1c1.25.39,1.82.74,1.72,1.05s-.58.39-1.4.13l-1.82-.57-1.45-.46-1-.31-.94-.3-1.55-.49-1.61-.5C202.64,526.58,202.31,526.28,202.42,525.94Z"/><path class="cls-4" d="M183,485c.06-.13.49-.91,1.27-2.34s1.51-2.81,2.17-4.14l.79-1.61q4.63,2.64,18.76,9.6l3.37,1.65,2.24,1.11.49.24c.61.3.86.58.73.85a.34.34,0,0,1-.44.16l-1.92-.78c-.88-.36-1.48-.43-1.8-.22a6.31,6.31,0,0,0-1.4,2.16l-13.52,27.48q-.7,1.41-.42,1.89a8,8,0,0,0,2.52,1.57c.52.26.72.52.58.8s-.56.24-1.28-.11l-8.33-4.1-5.51-2.72-6.82-3.35a19.13,19.13,0,0,0-2.78-1.13c.63-1.43,1.43-3.43,2.42-6l.84-2.19a3.05,3.05,0,0,1,.26-.66c.16-.33.38-.42.68-.28s.41.72.17,1.62q-1.25,4.86.27,7.07,1.13,1.65,7.76,4.92l4,2,7.06-14.33-1.17-.58c-3.64-1.79-6-2.61-7.06-2.45s-2.41,1.5-4,4c-.4.65-.75.9-1,.75s-.39-.55-.11-1.14.75-1.43,1.37-2.53,1.08-1.95,1.37-2.54c1.71-3.47,2.84-5.89,3.37-7.24.14-.34.26-.62.37-.85.21-.42.49-.54.85-.37a.54.54,0,0,1,.25.65,30.21,30.21,0,0,1-.92,2.9c-.68,2.05-.47,3.62.63,4.73a22.62,22.62,0,0,0,4.42,2.54L195.6,503l8-16.32q-10.72-5.28-12.79-5.76-3.57-.85-6.69,4.36c-.46.77-.87,1.07-1.23.89S182.62,485.63,183,485Z"/></g></g></svg>